<?xml version="1.0" encoding="UTF-8" standalone="no"?>
<svg
   version="1.0"
   width="800.000000pt"
   height="784.000000pt"
   viewBox="0 0 800.000000 784.000000"
   preserveAspectRatio="xMidYMid meet"
   id="svg8"
   sodipodi:docname="dd83d3c2-44d8-458a-8cbf-bf7606481af0_2.svg"
   inkscape:version="1.1.2 (b8e25be833, 2022-02-05)"
   xmlns:inkscape="http://www.inkscape.org/namespaces/inkscape"
   xmlns:sodipodi="http://sodipodi.sourceforge.net/DTD/sodipodi-0.dtd"
   xmlns="http://www.w3.org/2000/svg"
   xmlns:svg="http://www.w3.org/2000/svg">
  <defs
     id="defs12" />
  <sodipodi:namedview
     id="namedview10"
     pagecolor="#ffffff"
     bordercolor="#666666"
     borderopacity="1.0"
     inkscape:pageshadow="2"
     inkscape:pageopacity="0.0"
     inkscape:pagecheckerboard="0"
     inkscape:document-units="pt"
     showgrid="false"
     inkscape:zoom="0.69044441"
     inkscape:cx="288.94433"
     inkscape:cy="492.43646"
     inkscape:window-width="1920"
     inkscape:window-height="1009"
     inkscape:window-x="-8"
     inkscape:window-y="-8"
     inkscape:window-maximized="1"
     inkscape:current-layer="svg8" />
  <ellipse
     style="fill:#ffffff;fill-rule:evenodd;stroke-width:0.75"
     id="path59"
     cx="399.74255"
     cy="391.05249"
     rx="398.65625"
     ry="391.05249" />
  <g
     transform="translate(0.000000,784.000000) scale(0.100000,-0.100000)"
     fill="#000000"
     stroke="none"
     id="g6">
    <path
       d="M3525 7819 c-196 -29 -255 -39 -360 -61 -627 -126 -1250 -426 -1750 -843 -618 -516 -1051 -1173 -1269 -1928 -49 -170 -73 -284 -113 -532 -24 -152 -27 -203 -31 -480 -4 -314 -2 -344 39 -632 40 -279 146 -672 234 -867 12 -28 39 -89 60 -136 108 -251 311 -582 500 -820 610 -768 1477 -1285 2436 -1455 291 -52 379 -58 794 -61 349 -1 380 0 295 11 l-95 12 123 2 c289 3 740 108 1127 262 143 57 390 179 535 263 664 391 1204 966 1545 1647 199 396 342 876 376 1264 6 72 15 132 20 133 5 2 8 156 7 360 0 197 -4 337 -8 312 -5 -38 -7 -41 -12 -20 -4 14 -9 70 -12 125 -7 121 -44 337 -85 498 -188 728 -570 1368 -1128 1890 -513 480 -1152 819 -1843 978 -71 16 -231 45 -356 64 l-226 35 -342 -1 c-274 -1 -364 -5 -461 -20z m760 -9 c502 -36 1007 -172 1465 -393 193 -93 182 -79 126 -167 -229 -353 -1214 -915 -1796 -1025 -80 -15 -86 -14 -107 2 -184 149 -305 220 -414 243 -33 7 -95 11 -150 8 -156 -8 -259 -54 -426 -190 -128 -105 -163 -124 -332 -178 -151 -47 -226 -84 -264 -128 -16 -18 -23 -19 -45 -10 -39 16 -465 16 -582 0 -310 -43 -552 -127 -765 -267 -293 -192 -600 -512 -822 -857 -36 -57 -63 -96 -61 -88 3 8 18 62 32 120 245 950 866 1791 1724 2331 138 87 493 266 638 323 421 163 851 257 1254 275 252 12 372 12 525 1z m1714 -522 c20 -12 37 -22 38 -23 7 -4 -44 -344 -77 -505 -139 -688 -392 -1291 -713 -1698 -45 -57 -89 -113 -98 -124 -15 -20 -17 -19 -102 41 -47 34 -93 71 -102 83 -23 34 -18 80 21 204 35 109 36 114 20 139 -22 33 -60 47 -114 43 -39 -3 -43 -1 -37 17 27 94 28 115 11 134 -10 11 -43 24 -80 31 -98 18 -96 13 -53 139 46 138 48 182 7 222 l-29 30 -213 -2 c-174 -1 -221 1 -256 14 -44 17 -138 85 -181 130 l-23 25 48 7 c136 18 403 108 640 216 568 259 1056 597 1199 833 22 36 44 65 49 66 5 0 25 -10 45 -22z m176 -108 l39 -27 -2 -134 c-11 -509 -133 -1058 -377 -1699 -183 -479 -215 -582 -215 -690 0 -82 23 -123 90 -157 212 -109 483 4 834 346 144 141 273 283 521 575 280 329 393 440 416 405 5 -8 38 -71 74 -141 l65 -127 -47 -32 c-157 -108 -294 -282 -583 -744 -226 -362 -373 -581 -497 -742 -134 -174 -401 -442 -533 -535 -106 -75 -268 -163 -375 -203 -64 -24 -215 -65 -240 -65 -6 0 3 53 21 128 50 200 67 334 68 532 0 209 -17 307 -74 426 -107 224 -324 373 -740 509 -159 52 -196 73 -307 171 -111 98 -184 137 -286 155 -97 16 -182 7 -314 -35 -155 -49 -235 -55 -343 -26 -150 40 -273 25 -428 -51 -150 -73 -362 -299 -454 -484 -22 -44 -64 -110 -94 -146 -85 -105 -110 -177 -83 -246 14 -36 11 -38 -205 -133 -217 -96 -302 -151 -345 -221 -41 -68 -18 -128 78 -201 36 -27 66 -55 66 -61 0 -6 -27 -29 -60 -51 -98 -67 -107 -110 -39 -185 l35 -39 -42 -34 c-44 -35 -69 -74 -69 -107 0 -11 29 -58 65 -105 36 -47 68 -99 71 -115 6 -30 -2 -50 -90 -216 -43 -80 -48 -95 -44 -140 2 -28 15 -73 29 -100 32 -67 147 -182 240 -242 l77 -48 -85 -70 c-227 -185 -284 -264 -322 -441 -37 -170 -77 -508 -82 -704 -3 -113 1 -114 -144 6 -148 123 -408 378 -511 504 -232 281 -410 561 -555 869 l-68 144 34 31 c89 79 260 530 440 1156 42 146 85 292 97 325 105 297 387 622 838 967 147 112 200 167 297 303 81 114 140 211 273 445 160 284 164 287 363 350 212 67 237 80 407 219 99 82 185 127 278 146 85 18 131 18 210 0 116 -27 222 -93 376 -231 241 -217 247 -220 526 -217 117 2 211 -1 220 -7 12 -8 10 -24 -19 -112 -46 -140 -51 -165 -39 -199 12 -34 47 -55 106 -65 21 -3 44 -9 50 -13 7 -4 1 -39 -18 -106 -15 -55 -24 -101 -20 -103 5 -2 32 4 61 12 29 9 70 16 92 16 33 0 38 -3 32 -17 -29 -74 -55 -169 -60 -214 -9 -77 20 -130 105 -191 36 -26 87 -66 113 -90 l49 -43 -5 -75 c-3 -41 -8 -87 -12 -102 -6 -21 -2 -29 20 -44 33 -22 40 -14 61 66 20 77 14 156 -14 204 l-20 33 80 99 c257 319 483 767 624 1239 90 302 136 513 181 827 l27 187 35 -21 c20 -12 54 -34 76 -48z m171 -115 c51 -36 95 -69 98 -73 3 -5 -6 -42 -19 -83 -12 -41 -36 -128 -51 -194 -25 -106 -28 -140 -28 -295 -1 -154 2 -185 22 -255 30 -104 94 -216 157 -272 191 -172 436 -158 738 43 54 36 99 64 101 62 19 -27 86 -149 86 -156 0 -5 -18 -22 -40 -37 -57 -40 -157 -147 -394 -425 -416 -487 -594 -664 -799 -798 -188 -122 -361 -154 -482 -90 -74 38 -90 66 -88 146 2 90 32 189 172 562 208 553 301 871 360 1231 39 239 50 339 58 537 3 89 8 162 11 162 2 0 46 -29 98 -65z m212 -165 c17 -16 32 -33 32 -38 0 -9 -113 -122 -122 -122 -7 0 -3 21 24 118 12 39 24 72 27 72 3 0 21 -14 39 -30z m107 -89 l19 -22 -119 -119 c-66 -66 -123 -120 -127 -120 -5 0 -8 15 -8 33 0 66 19 100 102 184 86 87 92 89 133 44z m86 -79 l41 -37 -183 -180 -183 -180 -9 40 c-19 89 -9 108 141 258 75 75 140 137 145 137 4 0 26 -17 48 -38z m103 -105 c13 -20 13 -20 -227 -250 -103 -98 -181 -166 -186 -161 -5 5 -12 23 -15 40 -7 29 3 40 184 224 183 185 191 192 212 178 12 -8 27 -22 32 -31z m70 -66 c16 -16 27 -34 25 -39 -6 -16 -447 -442 -458 -442 -5 0 -17 20 -26 44 l-17 45 213 210 c118 116 219 210 225 211 5 0 23 -13 38 -29z m87 -98 l32 -37 -238 -234 -239 -234 -28 34 c-15 18 -28 39 -28 47 0 12 448 460 461 461 4 0 22 -17 40 -37z m78 -92 c27 -38 26 -45 -6 -71 -16 -12 -117 -109 -226 -217 l-198 -194 -34 21 c-19 12 -35 25 -35 30 0 10 460 460 470 460 5 0 18 -13 29 -29z m63 -78 c37 -33 32 -40 -216 -277 -167 -159 -177 -167 -203 -159 -16 6 -28 15 -28 22 0 11 413 431 424 431 2 0 13 -7 23 -17z m72 -94 l19 -32 -144 -143 c-79 -79 -159 -151 -177 -159 -18 -9 -50 -15 -73 -13 l-40 3 189 188 c103 103 193 187 198 187 5 0 18 -14 28 -31z m66 -94 c12 -19 19 -39 16 -43 -18 -30 -262 -172 -294 -172 -4 0 49 56 118 125 69 69 128 125 132 125 3 0 16 -16 28 -35z m-4944 -158 c5 -5 -23 -56 -199 -362 -190 -332 -303 -468 -531 -640 -320 -241 -591 -531 -722 -771 -62 -115 -71 -138 -175 -493 -179 -607 -331 -1025 -410 -1125 -17 -21 -24 -25 -30 -14 -17 26 -108 316 -143 453 -83 330 -106 535 -106 933 0 255 4 337 20 463 28 204 34 229 81 323 158 312 534 730 857 954 101 69 273 154 391 192 107 34 297 75 416 89 80 10 541 8 551 -2z m5340 -572 c24 -59 44 -115 44 -124 0 -9 -25 -45 -56 -81 -31 -36 -93 -121 -138 -190 -187 -284 -278 -473 -546 -1135 -406 -1007 -625 -1432 -974 -1889 -96 -127 -271 -326 -286 -326 -24 0 -188 326 -267 530 -44 112 -44 115 -28 148 8 19 18 53 21 76 6 39 4 44 -31 75 -20 18 -43 30 -51 27 -22 -8 -17 9 16 58 90 133 91 198 1 256 l-23 15 32 53 c22 34 35 69 38 102 4 46 2 52 -32 86 -33 33 -39 35 -75 29 l-40 -7 8 30 c18 60 28 69 93 82 267 55 569 225 806 453 263 254 435 486 832 1122 223 357 327 501 447 617 69 67 145 120 156 109 4 -5 28 -56 53 -116z m119 -331 c127 -417 171 -752 162 -1224 -6 -293 -17 -401 -67 -650 -105 -522 -327 -1033 -635 -1465 -234 -327 -597 -695 -890 -904 l-60 -42 -23 28 c-126 155 -334 452 -469 672 l-83 134 77 81 c81 86 225 264 309 381 297 417 517 851 844 1665 331 824 491 1143 710 1414 63 78 63 78 76 54 7 -14 29 -78 49 -144z m-3792 12 c102 -20 156 -50 262 -146 107 -98 134 -112 346 -185 295 -102 458 -192 575 -318 103 -112 144 -214 164 -417 20 -202 -37 -581 -126 -835 -13 -38 -21 -71 -17 -73 5 -1 15 -7 23 -13 18 -12 32 1 -185 -157 -277 -201 -438 -303 -617 -393 -351 -176 -668 -243 -980 -206 -69 9 -136 21 -149 28 -22 11 -22 12 -3 26 29 22 173 94 337 167 381 171 534 274 593 399 29 63 31 126 4 184 -34 77 -82 72 -415 -47 -121 -43 -317 -113 -435 -155 -247 -88 -408 -136 -558 -167 l-106 -21 -136 -137 c-119 -121 -371 -341 -434 -379 -21 -13 -29 -10 -93 32 -102 66 -207 168 -239 233 -33 67 -29 87 47 219 100 172 98 206 -11 349 -27 36 -50 68 -50 72 0 3 23 27 50 53 64 60 67 93 15 157 -19 23 -35 46 -35 51 0 4 28 26 62 48 75 48 103 84 94 118 -3 14 -36 47 -82 82 -42 32 -83 69 -91 81 -14 21 -13 26 6 53 32 45 137 106 322 186 93 41 182 83 199 95 35 25 46 70 30 129 -14 52 -2 78 77 176 31 39 72 101 90 138 82 169 260 372 393 450 132 76 275 103 376 71 45 -14 89 -19 179 -19 108 0 132 4 245 37 187 55 172 53 273 34z m167 -1996 c9 -22 9 -37 1 -62 -44 -125 -172 -214 -569 -392 -128 -58 -259 -121 -291 -141 -107 -64 -146 -130 -102 -174 39 -39 338 -74 511 -60 418 35 766 185 1262 543 354 256 368 263 368 206 0 -78 -88 -180 -325 -378 -406 -340 -741 -541 -945 -568 -64 -8 -71 -14 -64 -52 7 -37 9 -37 106 -17 254 53 603 271 1028 640 138 121 152 129 195 121 19 -4 35 -11 35 -17 0 -23 -54 -112 -112 -185 -89 -113 -274 -294 -414 -406 -273 -218 -532 -355 -757 -399 l-59 -12 6 -35 c3 -19 7 -36 8 -38 8 -7 178 36 257 65 142 52 371 183 516 294 87 68 216 180 332 290 122 115 157 137 203 122 26 -8 25 -17 -7 -73 -44 -75 -376 -395 -578 -556 -201 -160 -464 -314 -660 -385 -77 -27 -80 -30 -77 -57 2 -16 7 -32 11 -36 12 -14 162 43 306 116 243 123 453 274 685 491 130 123 200 164 253 148 41 -12 39 -32 -16 -137 -55 -106 -112 -181 -226 -299 -321 -332 -724 -536 -1206 -613 -142 -23 -420 -29 -598 -14 -81 7 -150 11 -152 9 -8 -8 -76 -257 -97 -352 -26 -121 -32 -397 -10 -456 6 -19 11 -36 9 -38 -14 -14 -401 113 -590 194 -233 99 -566 283 -713 393 l-50 38 3 63 c28 484 73 793 133 916 34 68 117 152 286 288 334 268 525 434 619 539 60 67 71 75 113 81 140 20 427 108 792 242 318 117 513 183 541 183 20 0 30 -7 39 -30z m1231 -975 c118 -307 437 -842 743 -1245 70 -94 91 -128 83 -136 -57 -54 -448 -267 -652 -354 -331 -143 -770 -261 -1075 -290 -63 -6 -158 -16 -211 -22 -131 -15 -649 -4 -799 17 -129 17 -324 51 -385 66 -39 10 -41 13 -41 47 0 20 -6 75 -13 122 -13 88 -9 156 15 300 14 86 69 295 83 318 6 11 39 11 169 2 389 -27 793 44 1147 201 375 167 741 490 886 783 68 137 63 192 -18 228 l-47 21 33 29 c18 16 34 28 36 26 2 -2 23 -53 46 -113z"
       id="path2" />
    <path
       d="M7992 3565 c0 -16 2 -22 5 -12 2 9 2 23 0 30 -3 6 -5 -1 -5 -18z"
       id="path4" />
  </g>
  <g
     inkscape:groupmode="layer"
     id="layer1"
     inkscape:label="Layer 1" />
</svg>
